<svg width="17" height="16" viewBox="0 0 17 16" fill="none" xmlns="http://www.w3.org/2000/svg">
<g clip-path="url(#clip0_4971_22744)">
<path d="M15.9284 5.7147C15.9284 5.4116 15.808 5.12091 15.5937 4.90658C15.3794 4.69226 15.0887 4.57185 14.7856 4.57185H12.4999L10.7856 2.28613H6.21415L4.49986 4.57185H2.21415C1.91104 4.57185 1.62035 4.69226 1.40602 4.90658C1.1917 5.12091 1.07129 5.4116 1.07129 5.7147V12.5718C1.07129 12.875 1.1917 13.1656 1.40602 13.38C1.62035 13.5943 1.91104 13.7147 2.21415 13.7147H14.7856C15.0887 13.7147 15.3794 13.5943 15.5937 13.38C15.808 13.1656 15.9284 12.875 15.9284 12.5718V5.7147Z" stroke="#3B3B3B" stroke-width="1.71429" stroke-linecap="round" stroke-linejoin="round"/>
<path d="M8.50014 11.1429C9.9203 11.1429 11.0716 9.99159 11.0716 8.57143C11.0716 7.15127 9.9203 6 8.50014 6C7.07998 6 5.92871 7.15127 5.92871 8.57143C5.92871 9.99159 7.07998 11.1429 8.50014 11.1429Z" stroke="#3B3B3B" stroke-width="1.71429" stroke-linecap="round" stroke-linejoin="round"/>
</g>
<defs>
<clipPath id="clip0_4971_22744">
<rect width="16" height="16" fill="white" transform="translate(0.5)"/>
</clipPath>
</defs>
</svg>
