<svg fill="none" height="40" viewBox="0 0 40 40" width="40" xmlns="http://www.w3.org/2000/svg"><path clip-rule="evenodd" d="m13.498 11.9882c-.113.1103-.2344.2311-.3965.3942 0 0-2.6703 2.6721-2.6792 2.6798-.0828.0786-.1518.1458-.2233.2168-.0328.0329-.062.0618-.1243.123-.0536.0527-.07836.0772-.10922.1079l-2.41441 2.4171c-.05182.0538-.09628.099-.15345.1565l-.06509.0654c-.07372.0739-.13204.134-.21447.2199-.18908.1866-.3808.3976-.56133.6188-.16775.1789-.30317.3857-.40013.6111l-.02562.0682c-.17464.5407-.17464 1.1226 0 1.6633l.02675.0708c.09769.2249.23384.4309.40221.6088.17978.2209.37136.4319.57392.6322.04262.0459.10541.11.18928.1939.05792.0579.08285.0829.11389.1142.04012.0405.07479.0759.10698.1092l2.42077 2.4253c.11992.1199.17362.1732.26972.2669.0789.078.1257.1235.2122.2033l2.6572 2.6611c.1992.1992.2885.2881.4012.3988.1464.1464.2429.2411.3936.3884.0568.0599.0781.0819.1072.1091.3402.3418.7551.6439 1.2095.8757.4548.2291.937.3882 1.4346.4742.4663.0768.9316.1178 1.398.1236.1978.0044.3963.0071.5923.0079h.4669 8.6866c.1803 0 .359-.0026.6068-.008.4637-.0057.9336-.0469 1.3985-.1232.5076-.0877.9931-.2483 1.4471-.4777.4602-.2327.88-.537 1.2441-.9017.3625-.3639.6656-.7813.8991-1.2378.2312-.4601.3912-.9466.4773-1.4486.077-.4706.1179-.9402.1235-1.4109.0036-.1156.0052-.2174.0079-.4441l.0018-.1451.0001-.7152v-7.9187l-.0014-.1252c-.0015-.1397-.0022-.2007-.0036-.279-.0012-.0735-.0027-.1408-.0047-.2057-.0052-.4525-.0458-.918-.121-1.3784-.0866-.504-.2453-.9864-.4718-1.4377-.2347-.4586-.5357-.8729-.8952-1.2334-.3596-.3621-.7762-.6651-1.2329-.8964-.4507-.2279-.9324-.3875-1.4298-.4737-.4684-.0762-.9338-.1168-1.4003-.1229-.2111-.0051-.406-.0079-.5934-.0079-.1891-.0019-.3456-.0023-.6968-.0023h-7.8113c-.3486 0-.5061.0004-.7038.0024-.1792-.0001-.3734.0026-.5962.0079-.4576.006-.9222.0467-1.3819.1215-.5056.0876-.9877.2471-1.4387.4745-.4578.2332-.8729.5356-1.2329.8976-.0167.0164-.0289.0292-.1308.138-.1264.1199-.2427.2331-.3555.3463zm-3.0228 3.0297.0028-.0021c-.0034.0026-.0059.0044-.0088.0068zm3.7294 12.4986-2.6857-2.6896s-.0536-.0487-.0591-.0534c-.0415-.0396-.0771-.0745-.1662-.1625-.0642-.0623-.1142-.1119-.2281-.2258l-2.41104-2.4153c-.02828-.0295-.06766-.0697-.11234-.1147-.03319-.0335-.06-.0604-.11872-.1191-.07384-.0739-.12685-.128-.17627-.1805-.18879-.1873-.34862-.3641-.49813-.5495l-.05124-.0574c-.03956-.0402-.07269-.0862-.09828-.1363-.05838-.2057-.05823-.4237.00045-.6294.02562-.051.05893-.0978.09881-.1388l.04711-.0531c.15034-.1858.31085-.3631.48079-.5311.09105-.0946.14368-.1488.18348-.1891l.05298-.0528.03723-.0373c.06326-.0636.11385-.1151.16242-.1657l2.40195-2.4044c.0263-.0262.0487-.0483.1118-.1103.0546-.0537.0861-.085.1212-.12.0541-.0538.1074-.1059.1598-.1561.0115-.0096.0248-.022.063-.0573l2.6833-2.6869c.1584-.1593.2749-.2753.3889-.3866.1096-.1099.2155-.213.3274-.3192.0248-.0231.0396-.0386.1081-.1113.0357-.0378.053-.056.0542-.0572.249-.2504.5303-.4553.8384-.6123.3111-.1568.6469-.2678.9934-.3279.3759-.0612.7639-.0951 1.1528-.1003.2195-.0051.4019-.0077.5753-.0077.1985-.0019.3525-.0023.696-.0023h7.8113c.346 0 .499.0004.689.0023.1815 0 .3643.0026.5724.0076.3981.0052.7869.0392 1.1716.1017.3374.0585.6721.1694.985.3277.308.1559.5892.3604.8327.6056.2465.2472.452.5301.6103.8395.1551.309.2656.645.3252.9918.0617.3772.0955.7649.1001 1.1535.002.0719.0034.1328.0045.2001.0013.0738.002.1326.0035.269l.0013.1178-.0001.6879v7.9195l-.0018.1439c-.0025.2175-.0041.3132-.0076.4302-.0049.4066-.0391.7985-.1025 1.1861-.0591.3447-.1709.6845-.3306 1.0024-.1575.3078-.3652.5938-.6131.8428-.2468.2471-.532.4539-.8445.6119-.3161.1597-.6545.2717-1.0039.332-.3814.0626-.7735.097-1.1665.1019-.2448.0053-.4135.0077-.5803.0077h-9.1505c-.1833-.0007-.3724-.0033-.5684-.0076-.3957-.005-.783-.0391-1.1662-.1022-.3404-.0588-.6761-.1696-.9901-.3278-.3049-.1556-.5868-.3608-.8315-.6061-.0146-.0144-.035-.0354-.0607-.0625l-.0032-.0034-.0003-.0004-.0003-.0003-.0003-.0003c-.0604-.0637-.0742-.0782-.0886-.092l-.0174-.0164c-.089-.0834-.1758-.1687-.3164-.3092-.1131-.1112-.2003-.198-.3958-.3935zm5.577-2.9041c-.0631.0625-.1387.1135-.224.1489-.2607.1079-.5607.0482-.7602-.1513-.1313-.1309-.2051-.3086-.2051-.494s.0738-.3631.2051-.494v.0016c.0375-.0376.0786-.0702.1223-.0976l3.0273-3.031-3.1496-3.146.0101-.0101c-.0627-.0632-.1138-.1389-.1492-.2243-.1079-.2607-.0482-.5607.1513-.7602.1309-.1318.309-.2059.4948-.2059.1857 0 .3638.0741.4948.2059h-.0032c.0339.0339.0638.0707.0894.1096l3.0467 3.0447 3.0564-3.0602c.0234-.0337.0502-.0659.0803-.096.1995-.1995.4995-.2592.7602-.1512.2607.1079.4306.3623.4306.6445 0 .1876-.0751.3629-.2022.4911l.0078.0078-3.1463 3.1502 3.0442 3.0423c.0377.0252.0731.0541.1057.0867l-.0016.0015c.1995.1995.2592.4996.1512.7602-.1079.2607-.3623.4307-.6444.4307-.1877 0-.363-.0752-.4912-.2022l-.006.0061-3.1428-3.1393-3.14 3.1439z" fill="#878787" fill-rule="evenodd"/></svg>