<svg fill="none" height="88" viewBox="0 0 88 88" width="88" xmlns="http://www.w3.org/2000/svg"><g fill="#878787"><path d="m83.2313 61.2715c-1.1012 0-2.0189.9187-2.0189 2.0211v8.4522c0 5.2366-4.2214 9.4627-9.4522 9.4627h-9.1768c-1.1013 0-2.0189.9187-2.0189 2.0212 0 1.1024.9176 2.0211 2.0189 2.0211h9.1768c7.4333 0 13.49-6.0635 13.49-13.505v-8.4522c0-1.1024-.9177-2.0211-2.0189-2.0211z"/><path d="m71.7602 2.75h-9.1768c-1.1013 0-2.0189.91871-2.0189 2.02116 0 1.10246.9176 2.02117 2.0189 2.02117h9.1768c5.2308 0 9.4522 4.22607 9.4522 9.46267v9.8303c0 1.1024.9177 2.0211 2.0189 2.0211s2.0189-.9187 2.0189-2.0211v-9.8303c0-7.44151-6.0567-13.505-13.49-13.505z"/><path d="m61.3908 42.9899c1.3765 0 2.4778-1.1025 2.5695-2.4805v-6.6147c0-1.47-1.1012-2.5724-2.5695-2.5724s-2.5695 1.1943-2.5695 2.5724v6.5228c0 1.4699 1.193 2.5724 2.5695 2.5724z"/><path d="m56.6177 60.8135c-3.3037 3.3073-7.7086 5.1448-12.2053 5.1448h-.7341c-4.5885 0-8.9016-1.8375-12.2052-5.1448-.7342-.8269-2.019-.8269-2.8449 0-.8259.735-.8259 2.0212 0 2.848 4.1296 4.1342 9.4522 6.3391 15.0501 6.3391h.7341c5.5979 0 11.0123-2.2049 15.0501-6.3391.8259-.735.8259-2.0212 0-2.848-.7342-.8269-2.0189-.8269-2.8448 0z"/><path d="m38.9994 55.2063h.4588c4.1296 0 7.4333-3.3073 7.4333-7.3496v-13.9644c0-1.1025-.9177-2.0212-2.0189-2.0212-1.1013 0-2.0189.9187-2.0189 2.0212v13.8725c0 1.9293-1.5601 3.3992-3.3955 3.3992h-.4588c-1.1012 0-2.0189.9187-2.0189 2.0212 0 1.1024.9177 2.0211 2.0189 2.0211z"/><path d="m25.4167 31.3223c-1.4683 0-2.5695 1.1943-2.5695 2.5724v6.5228c0 1.4699 1.193 2.5724 2.5695 2.5724 1.4683 0 2.5695-1.1025 2.5695-2.4805v-6.6147c0-1.47-1.193-2.5724-2.5695-2.5724z"/><path d="m4.8612 28.1064c1.10122 0 2.01891-.9187 2.01891-2.0211v-9.8303c0-5.2366 4.22139-9.46267 9.45219-9.46267h9.1768c1.1013 0 2.0189-.91871 2.0189-2.02117 0-1.10245-.9176-2.02116-2.0189-2.02116h-9.1768c-7.43329 0-13.49001 6.06349-13.49001 13.505v9.8303c0 1.1024.91768 2.0211 2.01891 2.0211z"/><path d="m25.4169 81.2075h-9.1769c-5.2308 0-9.45218-4.2261-9.45218-9.4627v-8.4522c0-1.1024-.91769-2.0211-2.01891-2.0211s-2.01891.9187-2.01891 2.0211v8.4522c0 7.4415 6.05673 13.505 13.49 13.505h9.1769c1.1929 0 2.0189-.9187 2.0189-2.0211 0-1.1025-.9177-2.0212-2.0189-2.0212z"/></g></svg>