<svg fill="none" height="24" viewBox="0 0 24 24" width="24" xmlns="http://www.w3.org/2000/svg"><path d="m20 22h-14c-.53043 0-1.03914-.2107-1.41421-.5858-.37508-.3751-.58579-.8838-.58579-1.4142" stroke="#687abb" stroke-linecap="round" stroke-linejoin="round" stroke-width="1.5"/><path d="m6.66667 2v-.75zm-2.66667 2.66667h-.75zm-.75 15.33333c0 .4142.33579.75.75.75s.75-.3358.75-.75zm3.41667-18.75c-.90616 0-1.7752.35997-2.41595 1.00072l1.06066 1.06066c.35944-.35945.84696-.56138 1.35529-.56138zm-2.41595 1.00072c-.64075.64075-1.00072 1.50979-1.00072 2.41595h1.5c0-.50833.20193-.99585.56138-1.35529zm-1.00072 2.41595v15.33333h1.5v-15.33333zm1.5 15.33333c0-.3315.1317-.6495.36612-.8839l-1.06066-1.0606c-.51573.5157-.80546 1.2152-.80546 1.9445zm.36612-.8839c.23442-.2344.55236-.3661.88388-.3661v-1.5c-.72935 0-1.42882.2897-1.94454.8055zm.88388-.3661h12.3333v-1.5h-12.3333zm14.75-2.4167v-12.66663h-1.5v12.66663zm-2.4167-15.0833h-11.66663v1.5h11.66663zm2.4167 2.41667c0-1.29683-1.1198-2.41667-2.4167-2.41667v1.5c.4684 0 .9167.44826.9167.91667zm-2.4167 15.08333c1.2969 0 2.4167-1.1198 2.4167-2.4167h-1.5c0 .4684-.4483.9167-.9167.9167z" fill="#687abb"/><path d="m18.066 22.2682c.1481.3868.5818.5803.9686.4322.3869-.1481.5804-.5817.4323-.9686zm1.4009-4c.1481-.3869-.0454-.8205-.4323-.9686-.3868-.1481-.8205.0454-.9686.4322zm-.7004 3.7318c.7004-.2682.7004-.2681.7004-.268.0001 0 .0001.0001.0001.0001v.0001c.0001.0001 0 0 0-.0001-.0001-.0001-.0002-.0006-.0005-.0014-.0006-.0015-.0016-.0041-.003-.0078-.0028-.0074-.0071-.0191-.0128-.0346-.0114-.0311-.0281-.0776-.0483-.1361-.0407-.1176-.0949-.282-.1489-.4682-.1142-.3937-.2037-.8068-.2037-1.084h-1.5c0 .5039.1438 1.0907.263 1.5018.0627.2161.1251.4053.172.5407.0234.0679.0432.1228.0573.1614.0071.0193.0128.0346.0168.0455.0021.0054.0037.0097.0049.0128.0006.0016.0011.0029.0015.0039.0001.0005.0003.0009.0004.0012.0001.0002.0002.0004.0002.0005s.0001.0002.0001.0002c0 .0001 0 .0002.7005-.268zm.2833-2c0-.2772.0895-.6903.2037-1.084.054-.1862.1082-.3506.1489-.4682.0202-.0585.0369-.105.0483-.1361.0057-.0155.01-.0272.0128-.0346.0014-.0037.0024-.0063.003-.0078.0003-.0008.0004-.0013.0005-.0014 0-.0001.0001-.0002 0-.0001v.0001s0 .0001-.0001.0001c0 .0001 0 .0002-.7004-.268-.7005-.2682-.7005-.2681-.7005-.268 0 0-.0001.0001-.0001.0002s-.0001.0003-.0002.0005c-.0001.0003-.0003.0007-.0004.0012-.0004.001-.0009.0023-.0015.0039-.0012.0031-.0028.0074-.0049.0128-.004.0109-.0097.0261-.0168.0455-.0141.0386-.0339.0935-.0573.1614-.0469.1354-.1093.3246-.172.5407-.1192.4111-.263.9979-.263 1.5018z" fill="#687abb"/><path d="m11.7758 13.4941 2.1431-2.1164c.2501-.25.5892-.3904.9427-.3904.3536 0 .6926.1404.9427.3904l.472.472c.2499.25.3904.5891.3904.9427 0 .3535-.1405.6926-.3904.9426l-.4089.4089c-.1624.1638-.3644.2826-.5864.3449-.2221.0623-.4564.066-.6803.0107l-.7751-.1938c-1.4824-.3701-2.8362-1.1363-3.91662-2.2167-1.08038-1.0804-1.84662-2.43424-2.21671-3.91663l-.19022-.77334c-.05572-.22334-.05266-.45731.00887-.67912.06152-.22182.17943-.42393.34224-.58665l.40889-.40889c.25004-.24996.58912-.39039.94267-.39039s.69263.14043.94268.39039l.472.47111c.2499.25003.3904.58911.3904.94266 0 .35356-.1405.69263-.3904.94267l-2.12091 2.13329" stroke="#687abb" stroke-linecap="round" stroke-linejoin="round" stroke-width="1.5"/></svg>