<svg width="49" height="48" viewBox="0 0 49 48" fill="none" xmlns="http://www.w3.org/2000/svg">
<g clip-path="url(#clip0_4383_12592)">
<path d="M0.5 24C0.5 10.7452 11.2452 0 24.5 0C37.7548 0 48.5 10.7452 48.5 24C48.5 37.2548 37.7548 48 24.5 48C11.2452 48 0.5 37.2548 0.5 24Z" fill="#FFF8F7"/>
<circle cx="24.5" cy="24" r="23.5" fill="#FFF8F7" stroke="#FFE8E6"/>
<g filter="url(#filter0_dd_4383_12592)">
<path d="M24.5 10.5C17.0609 10.5 11 16.5609 11 24C11 31.4391 17.0609 37.5 24.5 37.5C31.9391 37.5 38 31.4391 38 24C38 16.5609 31.9391 10.5 24.5 10.5Z" fill="white" stroke="#FEC3BE"/>
<path d="M24.5 11C17.337 11 11.5 16.837 11.5 24C11.5 31.163 17.337 37 24.5 37C31.663 37 37.5 31.163 37.5 24C37.5 16.837 31.663 11 24.5 11ZM23.525 18.8C23.525 18.267 23.967 17.825 24.5 17.825C25.033 17.825 25.475 18.267 25.475 18.8V25.3C25.475 25.833 25.033 26.275 24.5 26.275C23.967 26.275 23.525 25.833 23.525 25.3V18.8ZM25.696 29.694C25.631 29.863 25.54 29.993 25.423 30.123C25.293 30.24 25.15 30.331 24.994 30.396C24.838 30.461 24.669 30.5 24.5 30.5C24.331 30.5 24.162 30.461 24.006 30.396C23.85 30.331 23.707 30.24 23.577 30.123C23.46 29.993 23.369 29.863 23.304 29.694C23.239 29.538 23.2 29.369 23.2 29.2C23.2 29.031 23.239 28.862 23.304 28.706C23.369 28.55 23.46 28.407 23.577 28.277C23.707 28.16 23.85 28.069 24.006 28.004C24.318 27.874 24.682 27.874 24.994 28.004C25.15 28.069 25.293 28.16 25.423 28.277C25.54 28.407 25.631 28.55 25.696 28.706C25.761 28.862 25.8 29.031 25.8 29.2C25.8 29.369 25.761 29.538 25.696 29.694Z" fill="#FF3347"/>
</g>
</g>
<path d="M24.5 47C11.7975 47 1.5 36.7025 1.5 24H-0.5C-0.5 37.8071 10.6929 49 24.5 49V47ZM47.5 24C47.5 36.7025 37.2025 47 24.5 47V49C38.3071 49 49.5 37.8071 49.5 24H47.5ZM24.5 1C37.2025 1 47.5 11.2975 47.5 24H49.5C49.5 10.1929 38.3071 -1 24.5 -1V1ZM24.5 -1C10.6929 -1 -0.5 10.1929 -0.5 24H1.5C1.5 11.2975 11.7975 1 24.5 1V-1Z" fill="#FFE8E6"/>
<defs>
<filter id="filter0_dd_4383_12592" x="-13.5" y="-6" width="76" height="76" filterUnits="userSpaceOnUse" color-interpolation-filters="sRGB">
<feFlood flood-opacity="0" result="BackgroundImageFix"/>
<feColorMatrix in="SourceAlpha" type="matrix" values="0 0 0 0 0 0 0 0 0 0 0 0 0 0 0 0 0 0 127 0" result="hardAlpha"/>
<feOffset/>
<feGaussianBlur stdDeviation="1"/>
<feColorMatrix type="matrix" values="0 0 0 0 0.101961 0 0 0 0 0.101961 0 0 0 0 0.101961 0 0 0 0.08 0"/>
<feBlend mode="normal" in2="BackgroundImageFix" result="effect1_dropShadow_4383_12592"/>
<feColorMatrix in="SourceAlpha" type="matrix" values="0 0 0 0 0 0 0 0 0 0 0 0 0 0 0 0 0 0 127 0" result="hardAlpha"/>
<feOffset dy="8"/>
<feGaussianBlur stdDeviation="12"/>
<feColorMatrix type="matrix" values="0 0 0 0 0.101961 0 0 0 0 0.101961 0 0 0 0 0.101961 0 0 0 0.08 0"/>
<feBlend mode="normal" in2="effect1_dropShadow_4383_12592" result="effect2_dropShadow_4383_12592"/>
<feBlend mode="normal" in="SourceGraphic" in2="effect2_dropShadow_4383_12592" result="shape"/>
</filter>
<clipPath id="clip0_4383_12592">
<path d="M0.5 24C0.5 10.7452 11.2452 0 24.5 0C37.7548 0 48.5 10.7452 48.5 24C48.5 37.2548 37.7548 48 24.5 48C11.2452 48 0.5 37.2548 0.5 24Z" fill="white"/>
</clipPath>
</defs>
</svg>
