<svg fill="none" height="48" viewBox="0 0 49 48" width="49" xmlns="http://www.w3.org/2000/svg" xmlns:xlink="http://www.w3.org/1999/xlink"><clipPath id="a"><path d="m.5 0h48v48h-48z"/></clipPath><g clip-path="url(#a)"><circle cx="24.5" cy="24" fill="#f7f8ff" r="23.25" stroke="#e4eafd" stroke-width="1.5"/><path d="m24.5 10.5c-7.4391 0-13.5 6.0609-13.5 13.5s6.0609 13.5 13.5 13.5 13.5-6.0609 13.5-13.5-6.0609-13.5-13.5-13.5z" fill="#fff" stroke="#b8ccfc"/><path d="m24.5 37c7.163 0 13-5.837 13-13s-5.837-13-13-13-13 5.837-13 13 5.837 13 13 13zm.975-7.8c0 .533-.442.975-.975.975s-.975-.442-.975-.975v-6.5c0-.533.442-.975.975-.975s.975.442.975.975zm-2.171-10.894c.065-.169.156-.299.273-.429.13-.117.273-.208.429-.273s.325-.104.494-.104.338.039.494.104.299.156.429.273c.117.13.208.26.273.429.065.156.104.325.104.494s-.039.338-.104.494-.156.299-.273.429c-.13.117-.273.208-.429.273-.312.13-.676.13-.988 0-.156-.065-.299-.156-.429-.273-.117-.13-.208-.273-.273-.429s-.104-.325-.104-.494.039-.338.104-.494z" fill="#2787f5"/></g></svg>