<svg width="49" height="48" viewBox="0 0 49 48" fill="none" xmlns="http://www.w3.org/2000/svg">
<g clip-path="url(#clip0_4383_12717)">
<circle cx="24.5" cy="24" r="23.5" fill="#FFFAF7" stroke="#FFF0E6"/>
<g filter="url(#filter0_dd_4383_12717)">
<path d="M38.0242 28.1922L38.024 28.192L29.4417 12.9339C28.2343 10.7846 26.4982 9.5 24.5 9.5C22.5018 9.5 20.7657 10.7846 19.5583 12.9339L10.976 28.192L10.9751 28.1935C9.83283 30.241 9.65588 32.3061 10.6464 33.9768C11.6365 35.6468 13.5519 36.5 15.9176 36.5H33.0824C35.4481 36.5 37.3635 35.6468 38.3536 33.9768C39.3439 32.3065 39.1677 30.228 38.0242 28.1922Z" fill="white" stroke="#FF791A"/>
<path d="M37.5882 28.4371L29.0058 13.1788C27.8525 11.1258 26.2567 10 24.5 10C22.7433 10 21.1475 11.1258 19.9942 13.1788L11.4118 28.4371C10.3256 30.3841 10.2049 32.2517 11.0765 33.7219C11.9482 35.1921 13.6647 36 15.9176 36H33.0824C35.3353 36 37.0518 35.1921 37.9235 33.7219C38.7951 32.2517 38.6744 30.3709 37.5882 28.4371ZM23.4942 19.2715C23.4942 18.7285 23.9502 18.2781 24.5 18.2781C25.0498 18.2781 25.5058 18.7285 25.5058 19.2715V25.894C25.5058 26.4371 25.0498 26.8874 24.5 26.8874C23.9502 26.8874 23.4942 26.4371 23.4942 25.894V19.2715ZM25.4521 30.8079C25.3851 30.8609 25.318 30.9139 25.251 30.9669C25.1705 31.0199 25.09 31.0596 25.0096 31.0861C24.9291 31.1258 24.8487 31.1523 24.7548 31.1656C24.6743 31.1788 24.5805 31.1921 24.5 31.1921C24.4195 31.1921 24.3257 31.1788 24.2318 31.1656C24.1513 31.1523 24.0709 31.1258 23.9904 31.0861C23.91 31.0596 23.8295 31.0199 23.749 30.9669C23.682 30.9139 23.6149 30.8609 23.5479 30.8079C23.3065 30.5563 23.159 30.2119 23.159 29.8676C23.159 29.5232 23.3065 29.1788 23.5479 28.9272C23.6149 28.8742 23.682 28.8212 23.749 28.7682C23.8295 28.7152 23.91 28.6755 23.9904 28.649C24.0709 28.6093 24.1513 28.5828 24.2318 28.5695C24.4061 28.5298 24.5939 28.5298 24.7548 28.5695C24.8487 28.5828 24.9291 28.6093 25.0096 28.649C25.09 28.6755 25.1705 28.7152 25.251 28.7682C25.318 28.8212 25.3851 28.8742 25.4521 28.9272C25.6935 29.1788 25.841 29.5232 25.841 29.8676C25.841 30.2119 25.6935 30.5563 25.4521 30.8079Z" fill="#FF791A"/>
</g>
</g>
<defs>
<filter id="filter0_dd_4383_12717" x="-14.5005" y="-7" width="78.001" height="76" filterUnits="userSpaceOnUse" color-interpolation-filters="sRGB">
<feFlood flood-opacity="0" result="BackgroundImageFix"/>
<feColorMatrix in="SourceAlpha" type="matrix" values="0 0 0 0 0 0 0 0 0 0 0 0 0 0 0 0 0 0 127 0" result="hardAlpha"/>
<feOffset/>
<feGaussianBlur stdDeviation="1"/>
<feColorMatrix type="matrix" values="0 0 0 0 0.101961 0 0 0 0 0.101961 0 0 0 0 0.101961 0 0 0 0.08 0"/>
<feBlend mode="normal" in2="BackgroundImageFix" result="effect1_dropShadow_4383_12717"/>
<feColorMatrix in="SourceAlpha" type="matrix" values="0 0 0 0 0 0 0 0 0 0 0 0 0 0 0 0 0 0 127 0" result="hardAlpha"/>
<feOffset dy="8"/>
<feGaussianBlur stdDeviation="12"/>
<feColorMatrix type="matrix" values="0 0 0 0 0.101961 0 0 0 0 0.101961 0 0 0 0 0.101961 0 0 0 0.08 0"/>
<feBlend mode="normal" in2="effect1_dropShadow_4383_12717" result="effect2_dropShadow_4383_12717"/>
<feBlend mode="normal" in="SourceGraphic" in2="effect2_dropShadow_4383_12717" result="shape"/>
</filter>
<clipPath id="clip0_4383_12717">
<path d="M0.5 24C0.5 10.7452 11.2452 0 24.5 0C37.7548 0 48.5 10.7452 48.5 24C48.5 37.2548 37.7548 48 24.5 48C11.2452 48 0.5 37.2548 0.5 24Z" fill="white"/>
</clipPath>
</defs>
</svg>
