<svg fill="none" height="56" viewBox="0 0 64 56" width="64" xmlns="http://www.w3.org/2000/svg"><g stroke="#ff791a" stroke-linecap="round" stroke-linejoin="round"><path d="m1.00002 49.6252c.0025-.8924.23796-1.7687.68302-2.5421l25.93456-43.29579c.0005-.00083.001-.00166.0016-.00249.4567-.75206 1.0994-1.37389 1.8662-1.80559.7676-.43218 1.6337-.65922 2.5146-.65922s1.747.22704 2.5146.65922c.7668.43172 1.4095 1.05358 1.8663 1.8057.0005.00079.001.00159.0015.00238l25.9345 43.29579c.4451.7734.6806 1.6497.6831 2.5421.0025.895-.2294 1.775-.6726 2.5525-.4432.7776-1.0823 1.4255-1.8536 1.8794-.7698.453-1.6446.6969-2.5377.7077h-51.87218c-.89308-.0108-1.76789-.2547-2.53772-.7077-.77135-.4539-1.41041-1.1018-1.85361-1.8793-.4432-.7776-.675076-1.6576-.67257-2.5526z" stroke-width="2"/><path d="m32 20.6115v14.4" stroke-width="2"/><path d="m32 43.5137h.032" stroke-width="2.4"/></g></svg>